<svg id="visual" viewBox="0 0 960 540" width="960" height="540" xmlns="http://www.w3.org/2000/svg" xmlns:xlink="http://www.w3.org/1999/xlink" version="1.1"><rect x="0" y="0" width="960" height="540" fill="#ffffff"></rect><path d="M822 540L817.7 527.2C813.3 514.3 804.7 488.7 786.2 463C767.7 437.3 739.3 411.7 735.2 386C731 360.3 751 334.7 768.5 308.8C786 283 801 257 788.7 231.2C776.3 205.3 736.7 179.7 720.3 154C704 128.3 711 102.7 697.3 77C683.7 51.3 649.3 25.7 632.2 12.8L615 0L960 0L960 12.8C960 25.7 960 51.3 960 77C960 102.7 960 128.3 960 154C960 179.7 960 205.3 960 231.2C960 257 960 283 960 308.8C960 334.7 960 360.3 960 386C960 411.7 960 437.3 960 463C960 488.7 960 514.3 960 527.2L960 540Z" fill="#FCF7F9" stroke-linecap="round" stroke-linejoin="miter"></path></svg>